<svg height="23" viewBox="0 0 216 23" width="216" xmlns="http://www.w3.org/2000/svg"><path d="m620.404 46.556c.028.196.056.588.056.672 0 1.372-.672 1.652-2.632 1.792v.98h9.1v-.98c-1.54-.084-2.128-.336-2.296-1.68l-1.736-13.972c0-1.484.56-1.96 2.352-2.044v-.98h-6.244c-.056.644-.224 1.064-.448 1.68l-4.256 12.236-4.564-12.208c-.224-.616-.392-1.064-.448-1.708h-6.328v.98c1.848.084 2.38.56 2.38 2.044l-1.736 13.972c-.14 1.288-.728 1.596-2.324 1.68v.98h6.468v-.98c-2.044-.14-2.66-.42-2.66-1.792 0-.084.028-.476.056-.672l1.428-11.592 5.656 15.036h1.4l5.376-15.036zm13.584 1.484c.812 0 1.372-.308 2.156-.896v-5.236l-2.408.98c-1.176.448-1.904 1.092-1.904 2.66 0 1.456.672 2.492 2.156 2.492zm6.02-8.568v7.42c0 .952.196 1.568.924 1.568.42 0 .812-.14 1.12-.28l.168.616c-.812.952-1.876 1.484-3.192 1.484-1.512 0-2.52-.924-2.8-2.464-.896 1.176-2.352 2.408-4.368 2.408-2.268 0-3.78-1.372-3.78-3.612 0-2.408 1.736-3.388 3.836-4.172l4.228-1.54v-2.38c0-1.596-.532-2.744-1.988-2.744-1.344 0-1.876 1.008-1.876 2.352 0 .56.084 1.12.224 1.736l-2.324.308c-.756-.252-1.232-.84-1.232-1.764 0-2.324 2.408-3.528 5.516-3.528 3.584 0 5.544 1.316 5.544 4.592zm8.516.42c1.428-1.428 2.8-1.512 4.536-1.512h.532v-3.024c-.224-.28-.644-.476-1.232-.476-1.652 0-2.492 1.092-3.836 4.144l.112-4.144h-.644l-5.012 1.54v.532l1.68.98v9.912c0 .98-.448 1.148-1.764 1.232v.924h8.008v-.924c-1.736-.14-2.38-.308-2.38-1.456zm11.428-8.372h-.84c-1.204 1.848-2.856 3.416-4.788 4.284v.644h1.736v9.492c0 3.136 1.68 4.34 3.976 4.34 2.016 0 3.416-1.008 4.312-2.408l-.336-.504c-.7.532-1.316.784-2.1.784-1.316 0-1.96-.728-1.96-2.436v-9.268h3.64v-1.288h-3.64zm10.812 3.36h-.616l-4.928 1.54v.532l1.68.98v9.912c0 .98-.448 1.148-1.764 1.232v.924h7.392v-.924c-1.316-.084-1.764-.252-1.764-1.232zm-1.988-1.68c1.372 0 2.296-1.036 2.296-2.212 0-1.204-.924-2.212-2.296-2.212-1.344 0-2.268 1.008-2.268 2.212 0 1.176.924 2.212 2.268 2.212zm15.88 14.644c0 .98-.42 1.148-1.708 1.232v.924h7.336v-.924c-1.288-.084-1.736-.252-1.736-1.232v-8.4c0-3.052-1.372-4.564-4.004-4.564-2.38 0-3.976 1.344-5.18 2.744l.112-2.744h-.644l-5.012 1.54v.532l1.68.98v9.912c0 .98-.448 1.148-1.764 1.232v.924h7.336v-.924c-1.288-.084-1.708-.252-1.708-1.232v-9.464c.896-.616 1.96-1.148 3.136-1.148 1.54 0 2.156.812 2.156 2.436zm13.696-12.964c3.752 0 5.712 2.492 5.712 5.852v.644h-9.128c-.112 3.92 1.904 6.244 4.648 6.244 1.904 0 3.164-.812 4.172-2.268l.448.252c-.728 2.772-2.772 4.676-5.992 4.676-4.06 0-6.776-2.996-6.776-7.308 0-4.788 3.08-8.092 6.916-8.092zm-.28 1.036c-1.848 0-2.856 1.848-3.08 4.424h5.6c0-2.632-.7-4.424-2.52-4.424zm23.052-5.852c-5.544 0-9.884 4.088-9.884 10.584 0 5.796 3.78 9.632 9.884 9.632 2.632 0 4.816-.616 6.468-1.68l.42-5.264h-1.12c-.98 4.088-2.772 5.74-5.404 5.74-3.836 0-5.908-4.004-5.908-9.212 0-4.76 1.792-8.624 5.656-8.624 2.716 0 4.368 1.736 5.04 4.984h1.064l-.028-4.508c-1.596-1.036-3.696-1.652-6.188-1.652zm16.16 19.208c2.072 0 2.996-2.38 2.996-6.048 0-4.144-.952-7.308-3.192-7.308-2.072 0-3.024 2.352-3.024 6.02 0 4.144.98 7.336 3.22 7.336zm-.14 1.008c-4.284 0-7.196-2.912-7.196-7.364 0-4.76 3.108-8.036 7.28-8.036 4.284 0 7.196 2.968 7.196 7.392 0 4.76-3.108 8.008-7.28 8.008zm14.312-10.388c1.428-1.428 2.8-1.512 4.536-1.512h.532v-3.024c-.224-.28-.644-.476-1.232-.476-1.652 0-2.492 1.092-3.836 4.144l.112-4.144h-.644l-5.012 1.54v.532l1.68.98v9.912c0 .98-.448 1.148-1.764 1.232v.924h8.008v-.924c-1.736-.14-2.38-.308-2.38-1.456zm25.428 7.952c0 .98-.364 1.148-1.652 1.232v.924h7.28v-.924c-1.288-.084-1.736-.252-1.736-1.232v-8.456c0-2.968-1.26-4.508-3.836-4.508-2.324 0-3.948 1.344-5.124 2.828-.364-1.96-1.596-2.828-3.64-2.828-2.352 0-3.836 1.26-5.012 2.772l.112-2.772h-.644l-5.012 1.54v.532l1.68.98v9.912c0 .98-.448 1.148-1.764 1.232v.924h7.308v-.924c-1.288-.084-1.68-.252-1.68-1.232v-9.464c.896-.616 1.792-1.148 2.912-1.148 1.456 0 2.016.812 2.016 2.408v8.204c0 .98-.364 1.148-1.68 1.232v.924h7.224v-.924c-1.288-.084-1.652-.252-1.652-1.232v-9.436c.868-.644 1.764-1.176 2.884-1.176 1.456 0 2.016.812 2.016 2.408zm12.324-12.964h-.616l-4.928 1.54v.532l1.68.98v9.912c0 .98-.448 1.148-1.764 1.232v.924h7.392v-.924c-1.316-.084-1.764-.252-1.764-1.232zm-1.988-1.68c1.372 0 2.296-1.036 2.296-2.212 0-1.204-.924-2.212-2.296-2.212-1.344 0-2.268 1.008-2.268 2.212 0 1.176.924 2.212 2.268 2.212zm11.932 1.68c3.752 0 5.712 2.492 5.712 5.852v.644h-9.128c-.112 3.92 1.904 6.244 4.648 6.244 1.904 0 3.164-.812 4.172-2.268l.448.252c-.728 2.772-2.772 4.676-5.992 4.676-4.06 0-6.776-2.996-6.776-7.308 0-4.788 3.08-8.092 6.916-8.092zm-.28 1.036c-1.848 0-2.856 1.848-3.08 4.424h5.6c0-2.632-.7-4.424-2.52-4.424zm12.996 3.976c1.428-1.428 2.8-1.512 4.536-1.512h.532v-3.024c-.224-.28-.644-.476-1.232-.476-1.652 0-2.492 1.092-3.836 4.144l.112-4.144h-.644l-5.012 1.54v.532l1.68.98v9.912c0 .98-.448 1.148-1.764 1.232v.924h8.008v-.924c-1.736-.14-2.38-.308-2.38-1.456z" fill-rule="evenodd" transform="translate(-601 -28)"/></svg>